<svg id="visual" viewBox="0 0 900 600" width="900" height="600" xmlns="http://www.w3.org/2000/svg" xmlns:xlink="http://www.w3.org/1999/xlink" version="1.1"><rect x="0" y="0" width="900" height="600" fill="#242424"></rect><path d="M0 438L12.5 436.2C25 434.3 50 430.7 75 431.2C100 431.7 125 436.3 150 440C175 443.7 200 446.3 225 438.7C250 431 275 413 300 404.3C325 395.7 350 396.3 375 399.8C400 403.3 425 409.7 450 418C475 426.3 500 436.7 525 441C550 445.3 575 443.7 600 442.2C625 440.7 650 439.3 675 431.3C700 423.3 725 408.7 750 398.8C775 389 800 384 825 383.3C850 382.7 875 386.3 887.5 388.2L900 390L900 601L887.5 601C875 601 850 601 825 601C800 601 775 601 750 601C725 601 700 601 675 601C650 601 625 601 600 601C575 601 550 601 525 601C500 601 475 601 450 601C425 601 400 601 375 601C350 601 325 601 300 601C275 601 250 601 225 601C200 601 175 601 150 601C125 601 100 601 75 601C50 601 25 601 12.5 601L0 601Z" fill="#ba68c8"></path><path d="M0 437L12.5 440.2C25 443.3 50 449.7 75 449.3C100 449 125 442 150 443.7C175 445.3 200 455.7 225 454.2C250 452.7 275 439.3 300 437.2C325 435 350 444 375 447.5C400 451 425 449 450 444.2C475 439.3 500 431.7 525 427C550 422.3 575 420.7 600 417C625 413.3 650 407.7 675 417.7C700 427.7 725 453.3 750 455.7C775 458 800 437 825 431.5C850 426 875 436 887.5 441L900 446L900 601L887.5 601C875 601 850 601 825 601C800 601 775 601 750 601C725 601 700 601 675 601C650 601 625 601 600 601C575 601 550 601 525 601C500 601 475 601 450 601C425 601 400 601 375 601C350 601 325 601 300 601C275 601 250 601 225 601C200 601 175 601 150 601C125 601 100 601 75 601C50 601 25 601 12.5 601L0 601Z" fill="#a37cdd"></path><path d="M0 487L12.5 488.7C25 490.3 50 493.7 75 491.5C100 489.3 125 481.7 150 483.3C175 485 200 496 225 497.8C250 499.7 275 492.3 300 486.3C325 480.3 350 475.7 375 470C400 464.3 425 457.7 450 463.7C475 469.7 500 488.3 525 490.8C550 493.3 575 479.7 600 473.8C625 468 650 470 675 471.2C700 472.3 725 472.7 750 478.3C775 484 800 495 825 499.2C850 503.3 875 500.7 887.5 499.3L900 498L900 601L887.5 601C875 601 850 601 825 601C800 601 775 601 750 601C725 601 700 601 675 601C650 601 625 601 600 601C575 601 550 601 525 601C500 601 475 601 450 601C425 601 400 601 375 601C350 601 325 601 300 601C275 601 250 601 225 601C200 601 175 601 150 601C125 601 100 601 75 601C50 601 25 601 12.5 601L0 601Z" fill="#888eec"></path><path d="M0 542L12.5 540.8C25 539.7 50 537.3 75 527.5C100 517.7 125 500.3 150 492C175 483.7 200 484.3 225 487.2C250 490 275 495 300 502.8C325 510.7 350 521.3 375 525.2C400 529 425 526 450 524.7C475 523.3 500 523.7 525 524C550 524.3 575 524.7 600 526.7C625 528.7 650 532.3 675 527.8C700 523.3 725 510.7 750 510C775 509.3 800 520.7 825 525C850 529.3 875 526.7 887.5 525.3L900 524L900 601L887.5 601C875 601 850 601 825 601C800 601 775 601 750 601C725 601 700 601 675 601C650 601 625 601 600 601C575 601 550 601 525 601C500 601 475 601 450 601C425 601 400 601 375 601C350 601 325 601 300 601C275 601 250 601 225 601C200 601 175 601 150 601C125 601 100 601 75 601C50 601 25 601 12.5 601L0 601Z" fill="#6b9ef5"></path><path d="M0 526L12.5 533C25 540 50 554 75 554C100 554 125 540 150 540.8C175 541.7 200 557.3 225 563C250 568.7 275 564.3 300 561.5C325 558.7 350 557.3 375 551.8C400 546.3 425 536.7 450 539.2C475 541.7 500 556.3 525 564C550 571.7 575 572.3 600 570.3C625 568.3 650 563.7 675 560.2C700 556.7 725 554.3 750 555.2C775 556 800 560 825 561.7C850 563.3 875 562.7 887.5 562.3L900 562L900 601L887.5 601C875 601 850 601 825 601C800 601 775 601 750 601C725 601 700 601 675 601C650 601 625 601 600 601C575 601 550 601 525 601C500 601 475 601 450 601C425 601 400 601 375 601C350 601 325 601 300 601C275 601 250 601 225 601C200 601 175 601 150 601C125 601 100 601 75 601C50 601 25 601 12.5 601L0 601Z" fill="#4facf7"></path></svg>